
<svg width="0" height="0" xmlns="http://www.w3.org/2000/svg">
  <symbol xmlns="http://www.w3.org/2000/svg" viewBox="0 0 500 500" id="Pause">
    <rect x="171.233" y="130.137" width="47.9452" height="246.575"></rect>
    <rect x="280.822" y="130.137" width="47.9452" height="246.575"></rect>
    <path d="M500 250C500 388.071 388.071 500 250 500C111.929 500 0 388.071 0 250C0 111.929 111.929 0 250 0C388.071 0 500 111.929 500 250ZM33.9371 250C33.9371 369.328 130.672 466.063 250 466.063C369.328 466.063 466.063 369.328 466.063 250C466.063 130.672 369.328 33.9371 250 33.9371C130.672 33.9371 33.9371 130.672 33.9371 250Z"></path>
  </symbol>
  <symbol xmlns="http://www.w3.org/2000/svg" viewBox="0 0 500 500" id="Play">
    <path d="M375 254L195 377V131L375 254Z"></path>
    <path d="M500 250C500 388.071 388.071 500 250 500C111.929 500 0 388.071 0 250C0 111.929 111.929 0 250 0C388.071 0 500 111.929 500 250ZM33.9371 250C33.9371 369.328 130.672 466.063 250 466.063C369.328 466.063 466.063 369.328 466.063 250C466.063 130.672 369.328 33.9371 250 33.9371C130.672 33.9371 33.9371 130.672 33.9371 250Z"></path>
  </symbol>
  <symbol version="1.0" xmlns="http://www.w3.org/2000/svg" preserveAspectRatio="xMidYMid meet" viewBox="0 0 75.000000 67.000000" id="quotes">
    <g transform="translate(0.000000,67.000000) scale(0.100000,-0.100000)"  >
      <path d="M80 553 c0 -88 -9 -170 -35 -323 -19 -113 -35 -211 -35 -218 0 -10
      18 -12 72 -10 l73 3 97 215 98 215 0 118 0 117 -135 0 -135 0 0 -117z"></path>
      <path d="M480 553 c0 -88 -9 -170 -35 -323 -19 -113 -35 -211 -35 -218 0 -10
      18 -12 72 -10 l73 3 97 215 98 215 0 118 0 117 -135 0 -135 0 0 -117z"></path>
    </g>
  </symbol>
</svg>