<?xml version="1.0" encoding="utf-8"?><svg xmlns="http://www.w3.org/2000/svg" xmlns:xlink="http://www.w3.org/1999/xlink"><symbol viewBox="0 0 14 25" id="arrow1-L" xmlns="http://www.w3.org/2000/svg"><path d="M10.607 1.414a2 2 0 012.828 0L1.415 13.435 0 12.021 10.607 1.414z"/><path d="M0 12.02l1.414-1.413 12.021 12.02a2 2 0 01-2.828 0L0 12.021z"/></symbol><symbol viewBox="0 0 448 512" id="arrow2-L" xmlns="http://www.w3.org/2000/svg"><path d="M9.4 233.4c-12.5 12.5-12.5 32.8 0 45.3l160 160c12.5 12.5 32.8 12.5 45.3 0s12.5-32.8 0-45.3L109.2 288H416c17.7 0 32-14.3 32-32s-14.3-32-32-32H109.3l105.3-105.4c12.5-12.5 12.5-32.8 0-45.3s-32.8-12.5-45.3 0l-160 160z"/></symbol><symbol viewBox="0 0 47 17" id="arrow3-R" xmlns="http://www.w3.org/2000/svg"><path d="M0 7h44v3H0z"/><path d="M37.94 17l-2.49-2.46 8.6-8.5 2.489 2.46-8.6 8.5z"/><path d="M46.539 8.5l-2.49 2.46-8.599-8.5L37.94 0l8.599 8.5z"/></symbol><symbol viewBox="0 0 30 29" id="cart" xmlns="http://www.w3.org/2000/svg"><circle cx="13.516" cy="25.591" r="2.5"/><circle cx="22.516" cy="25.591" r="2.5"/><circle cx="11.5" cy="8.5" r="1.5"/><circle cx="13.5" cy="12.5" r="1.5"/><circle cx="17.516" cy="12.591" r="1.5"/><circle cx="21.5" cy="12.5" r="1.5"/><circle cx="15.5" cy="8.5" r="1.5"/><circle cx="19.516" cy="8.591" r="1.5"/><circle cx="23.516" cy="8.591" r="1.5"/><path d="M10.017 15.091h16v1a1 1 0 01-1 1h-15v-2z"/><path d="M5.896 2.091l7.135 19.603-.94.342a1 1 0 01-1.282-.598L4.016 2.776l1.88-.684zm22.235 3.285a1 1 0 01.707 1.224l-2.61 9.743a1 1 0 01-1.225.707l-.966-.259 2.87-10.708a1 1 0 011.224-.707z"/><path d="M11.016 20.091h13a1 1 0 010 2h-12a1 1 0 01-1-1v-1zM.326.946a1 1 0 011.27-.62l3.718 1.28a1 1 0 01.62 1.27l-.325.946L.946 2.217A1 1 0 01.326.946z"/></symbol><symbol viewBox="0 0 1200 1200" id="digg" xmlns="http://www.w3.org/2000/svg"><path d="M1123.2 375.086h-75.429V524.57H600.684V375.086h-76.8v229.027h76.8v441.601h223.544V826.285h76.8v219.43h145.371V604.114h76.801V375.086zM677.486 155.658v293.485H970.97V155.658H677.486zM1200 303.771v377.143h-76.8v440.229H523.886V680.914H300.343v145.37h71.314v75.43h76.8v219.429H75.429V901.714h76.8v144h219.429v-144H152.229v-75.43h71.314v-145.37H75.429v-76.801h371.657V303.771h153.6V78.857h447.086v224.914H1200zm-828.343 0v-71.313h75.429v71.313h-75.429zm-296.228 0v300.343H0V303.771h75.429zm76.8 0h-76.8v-71.313h76.8v71.313zm219.428-71.314H152.229v-76.8h219.429l-.001 76.8z"/></symbol><symbol viewBox="0 0 512 512" id="dribbble" xmlns="http://www.w3.org/2000/svg"><path d="M256 8C119.252 8 8 119.252 8 256s111.252 248 248 248 248-111.252 248-248S392.748 8 256 8zm163.97 114.366c29.503 36.046 47.369 81.957 47.835 131.955-6.984-1.477-77.018-15.682-147.502-6.818-5.752-14.041-11.181-26.393-18.617-41.614 78.321-31.977 113.818-77.482 118.284-83.523zM396.421 97.87c-3.81 5.427-35.697 48.286-111.021 76.519-34.712-63.776-73.185-116.168-79.04-124.008 67.176-16.193 137.966 1.27 190.061 47.489zm-230.48-33.25c5.585 7.659 43.438 60.116 78.537 122.509-99.087 26.313-186.36 25.934-195.834 25.809C62.38 147.205 106.678 92.573 165.941 64.62zM44.17 256.323c0-2.166.043-4.322.108-6.473 9.268.19 111.92 1.513 217.706-30.146 6.064 11.868 11.857 23.915 17.174 35.949-76.599 21.575-146.194 83.527-180.531 142.306C64.794 360.405 44.17 310.73 44.17 256.323zm81.807 167.113c22.127-45.233 82.178-103.622 167.579-132.756 29.74 77.283 42.039 142.053 45.189 160.638-68.112 29.013-150.015 21.053-212.768-27.882zm248.38 8.489c-2.171-12.886-13.446-74.897-41.152-151.033 66.38-10.626 124.7 6.768 131.947 9.055-9.442 58.941-43.273 109.844-90.795 141.978z"/></symbol><symbol viewBox="0 0 320 512" id="f" xmlns="http://www.w3.org/2000/svg"><path d="M80 299.3V512h116V299.3h86.5l18-97.8H196v-34.6c0-51.7 20.3-71.5 72.7-71.5 16.3 0 29.4.4 37 1.2V7.9C291.4 4 256.4 0 236.2 0 129.3 0 80 50.5 80 159.4v42.1H14v97.8h66z"/></symbol><symbol viewBox="0 0 701 475" id="letter" xmlns="http://www.w3.org/2000/svg"><path d="M700.195 25a25.001 25.001 0 00-25-25h-650a25 25 0 00-25 25v425a19.5 19.5 0 000 5.5 23.5 23.5 0 000 4c0 1.5 1.75 2.5 2.5 3.75a27.26 27.26 0 003.25 4.25 15.237 15.237 0 004 2.25l3 2a30.25 30.25 0 0012.25 3.25h650a30.261 30.261 0 009.25-1.75l3-2a15.266 15.266 0 004-2.25 27.25 27.25 0 003.25-4.25s1.75-2.25 2.5-3.75a23.435 23.435 0 000-4 19.498 19.498 0 003-7V25zm-650 45.25l172.5 113.5-172.5 200V70.25zm300 137.25l-240-157.5h480l-240 157.5zm-85.25 4l71.5 47a25 25 0 0027.5 0l71.5-47 185 213.5h-540.5l185-213.5zm212.75-27.75l172.5-113.5V383l-172.5-199.25z"/></symbol><symbol viewBox="0 0 13 12" id="message" xmlns="http://www.w3.org/2000/svg"><rect width="13" height="8" rx="1"/><path d="M6 7.5l-3.75 3.897V3.603L6 7.5z"/></symbol><symbol viewBox="0 0 512 512" id="twitter" xmlns="http://www.w3.org/2000/svg"><path d="M459.37 151.716c.325 4.548.325 9.097.325 13.645 0 138.72-105.583 298.558-298.558 298.558-59.452 0-114.68-17.219-161.137-47.106 8.447.974 16.568 1.299 25.34 1.299 49.055 0 94.213-16.568 130.274-44.832-46.132-.975-84.792-31.188-98.112-72.772 6.498.974 12.995 1.624 19.818 1.624 9.421 0 18.843-1.3 27.614-3.573-48.081-9.747-84.143-51.98-84.143-102.985v-1.299c13.969 7.797 30.214 12.67 47.431 13.319-28.264-18.843-46.781-51.005-46.781-87.391 0-19.492 5.197-37.36 14.294-52.954 51.655 63.675 129.3 105.258 216.365 109.807-1.624-7.797-2.599-15.918-2.599-24.04 0-57.828 46.782-104.934 104.934-104.934 30.213 0 57.502 12.67 76.67 33.137 23.715-4.548 46.456-13.32 66.599-25.34-7.798 24.366-24.366 44.833-46.132 57.827 21.117-2.273 41.584-8.122 60.426-16.243-14.292 20.791-32.161 39.308-52.628 54.253z"/></symbol><symbol viewBox="0 0 448 512" id="vimeo" xmlns="http://www.w3.org/2000/svg"><path d="M447.8 153.6c-2 43.6-32.4 103.3-91.4 179.1-60.9 79.2-112.4 118.8-154.6 118.8-26.1 0-48.2-24.1-66.3-72.3C100.3 250 85.3 174.3 56.2 174.3c-3.4 0-15.1 7.1-35.2 21.1L0 168.2c51.6-45.3 100.9-95.7 131.8-98.5 34.9-3.4 56.3 20.5 64.4 71.5 28.7 181.5 41.4 208.9 93.6 126.7 18.7-29.6 28.8-52.1 30.2-67.6 4.8-45.9-35.8-42.8-63.3-31 22-72.1 64.1-107.1 126.2-105.1 45.8 1.2 67.5 31.1 64.9 89.4z"/></symbol></svg>