<!-- SVG Sprite -->
<svg xmlns="http://www.w3.org/2000/svg">
  <symbol viewBox="0 0 1024 1024" id="ball">
    <g>
      <path d="M512 1024c-282.4 0-512-229.6-512-512s229.6-512 512-512c282.4 0 512 229.6 512 512s-229.6 512-512 512v0zM943.8 582c-15-4.8-135.4-40.6-272.4-18.6 57.2 157.2 80.4 285.2 85 311.8 98-66.4 168-171.4 187.4-293.2v0zM682.8 915.2c-6.6-38.4-31.8-172-93.2-331.6-1 0.4-2 0.6-2.8 1-246.8 86-335.4 257-343.2 273 74.2 57.8 167.4 92.4 268.4 92.4 60.6 0 118.4-12.4 170.8-34.8v0zM187 805c10-17 130-215.6 355.4-288.6 5.6-1.8 11.4-3.6 17.2-5.2-11-24.8-23-49.8-35.4-74.2-218.2 65.4-430.2 62.6-449.4 62.4-0.2 4.4-0.2 8.8-0.2 13.4 0 112.2 42.6 214.8 112.4 292.2v0zM84 423c19.6 0.2 199.8 1 404.4-53.2-72.4-128.8-150.6-237.2-162.2-253-122.4 57.8-214 170.6-242.2 306.2v0zM409.6 87.4c12 16.2 91.6 124.4 163.2 256 155.6-58.2 221.4-146.8 229.2-158-77.2-68.6-178.8-110.2-290-110.2-35.2 0.2-69.6 4.4-102.4 12.2v0zM850.6 236.2c-9.2 12.4-82.6 106.4-244.2 172.4 10.2 20.8 20 42 29 63.4 3.2 7.6 6.4 15 9.4 22.6 145.6-18.2 290.2 11 304.6 14-1-103.2-38-198-98.8-272.4v0z"></path>
    </g>
  </symbol>
  <symbol viewBox="0 0 1024 1024" id="Be">
    <g>
      <path d="M297 205.2c30.2 0 57.4 2.6 82.2 8 24.8 5.2 45.8 14 63.6 26 17.6 12 31.2 28 41.2 48 9.6 19.8 14.4 44.6 14.4 74 0 31.8-7.2 58.2-21.6 79.4-14.6 21.2-35.8 38.4-64.2 52 38.8 11.2 67.4 30.8 86.6 58.6 19.2 28 28.4 61.6 28.4 101.2 0 32-6.2 59.4-18.4 82.6-12.4 23.4-29.2 42.4-49.8 57-20.8 14.8-44.8 25.6-71.6 32.6-26.6 7-54 10.6-82.4 10.6h-305.4v-630h297zM279 459.6c24.6 0 45-5.8 61-17.6 16-11.6 23.6-30.8 23.6-57.2 0-14.6-2.6-26.8-7.8-36.2-5.4-9.4-12.4-16.8-21.4-22-8.8-5.4-18.8-9-30.6-11-11.4-2.2-23.4-3.2-35.6-3.2h-129.6v147.2h140.4zM286.6 727.8c13.6 0 26.6-1.2 38.8-4 12.4-2.8 23.4-7 32.6-13.4 9.2-6.2 17-14.4 22.6-25.2 5.6-10.6 8.2-24.2 8.2-40.8 0-32.4-9.2-55.6-27.4-69.6-18.2-13.8-42.4-20.6-72.4-20.6h-150.4v173.4h148z"></path>
      <path d="M725.2 725.6c18.8 18.4 45.8 27.6 81 27.6 25.2 0 47.2-6.4 65.4-19.2s29.2-26.4 33.4-40.4h110.4c-17.8 55-44.6 94-81.4 117.6-36.2 23.6-80.6 35.6-132 35.6-36 0-68.2-5.8-97.2-17.2-29-11.6-53.2-27.8-73.6-49-19.8-21.2-35.4-46.4-46.4-76-10.8-29.4-16.4-62-16.4-97.2 0-34.2 5.6-66 16.8-95.4 11.4-29.6 27-55 47.8-76.4s45.2-38.4 74-50.8c28.6-12.4 60.2-18.6 95.2-18.6 38.6 0 72.4 7.4 101.4 22.6 28.8 15 52.6 35.2 71.2 60.4s31.8 54.2 40 86.6c8.2 32.4 11 66.2 8.8 101.6h-329.4c0 35.8 12 70 31 88.2zM869 486c-14.8-16.4-40.2-25.4-70.8-25.4-20 0-36.6 3.4-49.8 10.2-13 6.8-23.6 15.2-31.8 25.2-8 10-13.6 20.8-16.8 32.2-3.2 11-5.2 21.2-5.8 30h204c-3-32-14-55.6-29-72.2z"></path>
      <path d="M668.4 256h255.4v62.2h-255.4v-62.2z"></path>
    </g>
  </symbol>
  <symbol viewBox="0 0 320 512" id="facebook-f">
    <path d="M80 299.3V512H196V299.3h86.5l18-97.8H196V166.9c0-51.7 20.3-71.5 72.7-71.5c16.3 0 29.4 .4 37 1.2V7.9C291.4 4 256.4 0 236.2 0C129.3 0 80 50.5 80 159.4v42.1H14v97.8H80z"></path>
  </symbol>
  <symbol viewBox="0 0 1024 1024" id="inst">
    <g>
      <path d="M512 92.2c136.8 0 153 0.6 206.8 3 50 2.2 77 10.6 95 17.6 23.8 9.2 41 20.4 58.8 38.2 18 18 29 35 38.4 58.8 7 18 15.4 45.2 17.6 95 2.4 54 3 70.2 3 206.8s-0.6 153-3 206.8c-2.2 50-10.6 77-17.6 95-9.2 23.8-20.4 41-38.2 58.8-18 18-35 29-58.8 38.4-18 7-45.2 15.4-95 17.6-54 2.4-70.2 3-206.8 3s-153-0.6-206.8-3c-50-2.2-77-10.6-95-17.6-23.8-9.2-41-20.4-58.8-38.2-18-18-29-35-38.4-58.8-7-18-15.4-45.2-17.6-95-2.4-54-3-70.2-3-206.8s0.6-153 3-206.8c2.2-50 10.6-77 17.6-95 9.2-23.8 20.4-41 38.2-58.8 18-18 35-29 58.8-38.4 18-7 45.2-15.4 95-17.6 53.8-2.4 70-3 206.8-3zM512 0c-139 0-156.4 0.6-211 3-54.4 2.4-91.8 11.2-124.2 23.8-33.8 13.2-62.4 30.6-90.8 59.2-28.6 28.4-46 57-59.2 90.6-12.6 32.6-21.4 69.8-23.8 124.2-2.4 54.8-3 72.2-3 211.2s0.6 156.4 3 211c2.4 54.4 11.2 91.8 23.8 124.2 13.2 33.8 30.6 62.4 59.2 90.8 28.4 28.4 57 46 90.6 59 32.6 12.6 69.8 21.4 124.2 23.8 54.6 2.4 72 3 211 3s156.4-0.6 211-3c54.4-2.4 91.8-11.2 124.2-23.8 33.6-13 62.2-30.6 90.6-59s46-57 59-90.6c12.6-32.6 21.4-69.8 23.8-124.2 2.4-54.6 3-72 3-211s-0.6-156.4-3-211c-2.4-54.4-11.2-91.8-23.8-124.2-12.6-34-30-62.6-58.6-91-28.4-28.4-57-46-90.6-59-32.6-12.6-69.8-21.4-124.2-23.8-54.8-2.6-72.2-3.2-211.2-3.2v0z"></path>
      <path d="M512 249c-145.2 0-263 117.8-263 263s117.8 263 263 263 263-117.8 263-263c0-145.2-117.8-263-263-263zM512 682.6c-94.2 0-170.6-76.4-170.6-170.6s76.4-170.6 170.6-170.6c94.2 0 170.6 76.4 170.6 170.6s-76.4 170.6-170.6 170.6z"></path>
      <path d="M846.8 238.6c0 33.91-27.49 61.4-61.4 61.4s-61.4-27.49-61.4-61.4c0-33.91 27.49-61.4 61.4-61.4s61.4 27.49 61.4 61.4z"></path>
    </g>
  </symbol>
  <symbol viewBox="0 0 24 24" id="pinterest">
    <path d="M12.017 0C5.396 0 .029 5.367.029 11.987c0 5.079 3.158 9.417 7.618 11.162-.105-.949-.199-2.403.041-3.439.219-.937 1.406-5.957 1.406-5.957s-.359-.72-.359-1.781c0-1.663.967-2.911 2.168-2.911 1.024 0 1.518.769 1.518 1.688 0 1.029-.653 2.567-.992 3.992-.285 1.193.6 2.165 1.775 2.165 2.128 0 3.768-2.245 3.768-5.487 0-2.861-2.063-4.869-5.008-4.869-3.41 0-5.409 2.562-5.409 5.199 0 1.033.394 2.143.889 2.741.099.12.112.225.085.345-.09.375-.293 1.199-.334 1.363-.053.225-.172.271-.401.165-1.495-.69-2.433-2.878-2.433-4.646 0-3.776 2.748-7.252 7.92-7.252 4.158 0 7.392 2.967 7.392 6.923 0 4.135-2.607 7.462-6.233 7.462-1.214 0-2.354-.629-2.758-1.379l-.749 2.848c-.269 1.045-1.004 2.352-1.498 3.146 1.123.345 2.306.535 3.55.535 6.607 0 11.985-5.365 11.985-11.987C23.97 5.39 18.592.026 11.985.026L12.017 0z"></path>
  </symbol>
  <symbol viewBox="0 0 1024 1024" id="twitter">
    <g>
      <path d="M1024 226.4c-37.6 16.8-78.2 28-120.6 33 43.4-26 76.6-67.2 92.4-116.2-40.6 24-85.6 41.6-133.4 51-38.4-40.8-93-66.2-153.4-66.2-116 0-210 94-210 210 0 16.4 1.8 32.4 5.4 47.8-174.6-8.8-329.4-92.4-433-219.6-18 31-28.4 67.2-28.4 105.6 0 72.8 37 137.2 93.4 174.8-34.4-1-66.8-10.6-95.2-26.2 0 0.8 0 1.8 0 2.6 0 101.8 72.4 186.8 168.6 206-17.6 4.8-36.2 7.4-55.4 7.4-13.6 0-26.6-1.4-39.6-3.8 26.8 83.4 104.4 144.2 196.2 146-72 56.4-162.4 90-261 90-17 0-33.6-1-50.2-3 93.2 59.8 203.6 94.4 322.2 94.4 386.4 0 597.8-320.2 597.8-597.8 0-9.2-0.2-18.2-0.6-27.2 41-29.4 76.6-66.4 104.8-108.6z"></path>
    </g>
  </symbol>
</svg>