<svg xmlns="http://www.w3.org/2000/svg" xmlns:xlink="http://www.w3.org/1999/xlink">
  <symbol xmlns="http://www.w3.org/2000/svg" viewBox="0 0 37 23" id="arrow-btn">
    <path d="M35.8838 12.0881C36.4649 11.496 36.4574 10.5463 35.867 9.96686L26.2456 0.524012C25.6552 -0.0554479 24.7055 -0.0452212 24.1244 0.546854C23.5433 1.13893 23.5509 2.08865 24.1413 2.66811L32.6936 11.0618L24.2764 19.6381C23.6953 20.2302 23.7028 21.1799 24.2932 21.7594C24.8837 22.3388 25.8334 22.3286 26.4144 21.7365L35.8838 12.0881ZM0.850075 12.9047L34.8267 12.5389L34.8029 9.53896L0.826194 9.90483L0.850075 12.9047Z"></path>
  </symbol>
  <symbol fill="" xmlns="http://www.w3.org/2000/svg" viewBox="0 0 58 107" id="arrow">
    <g filter="url(#filter0_f_109_4865)">
      <line x1="4.80061" y1="2.3083" x2="54.8448" y2="54.2657" stroke="" stroke-width="5"></line>
      <line x1="3.19745" y1="104.201" x2="52.2434" y2="53.266" stroke="" stroke-width="5"></line>
    </g>
    <defs>
      <filter id="filter0_f_109_4865" x="0.896606" y="0.0739746" width="56.2488" height="106.361" filterUnits="userSpaceOnUse" color-interpolation-filters="sRGB">
        <feFlood flood-opacity="0" result="BackgroundImageFix"></feFlood>
        <feBlend mode="normal" in="SourceGraphic" in2="BackgroundImageFix" result="shape"></feBlend>
        <feGaussianBlur stdDeviation="0.25" result="effect1_foregroundBlur_109_4865"></feGaussianBlur>
      </filter>
    </defs>
  </symbol>
  <symbol  xmlns="http://www.w3.org/2000/svg" viewBox="0 0 72 122" id="arrow-withShadow">
    <g filter="url(#filter0_f_109_4861)">
      <line x1="11.8006" y1="10.3083" x2="61.8448" y2="62.2657" stroke="" stroke-width="5"></line>
      <line x1="10.1975" y1="112.201" x2="59.2434" y2="61.266" stroke="" stroke-width="5"></line>
    </g>
    <g filter="url(#filter1_f_109_4861)">
      <line x1="11.8006" y1="10.3083" x2="61.8448" y2="62.2657" stroke="" stroke-width="5"></line>
      <line x1="10.1975" y1="112.201" x2="59.2434" y2="61.266" stroke="" stroke-width="5"></line>
    </g>
    <defs>
      <filter id="filter0_f_109_4861" x="0.396606" y="0.573975" width="71.2488" height="121.361" filterUnits="userSpaceOnUse" color-interpolation-filters="sRGB">
        <feFlood flood-opacity="0" result="BackgroundImageFix"></feFlood>
        <feBlend mode="normal" in="SourceGraphic" in2="BackgroundImageFix" result="shape"></feBlend>
        <feGaussianBlur stdDeviation="4" result="effect1_foregroundBlur_109_4861"></feGaussianBlur>
      </filter>
      <filter id="filter1_f_109_4861" x="7.89661" y="8.07397" width="56.2488" height="106.361" filterUnits="userSpaceOnUse" color-interpolation-filters="sRGB">
        <feFlood flood-opacity="0" result="BackgroundImageFix"></feFlood>
        <feBlend mode="normal" in="SourceGraphic" in2="BackgroundImageFix" result="shape"></feBlend>
        <feGaussianBlur stdDeviation="0.25" result="effect1_foregroundBlur_109_4861"></feGaussianBlur>
      </filter>
    </defs>
  </symbol>
  <symbol xmlns="http://www.w3.org/2000/svg" viewBox="0 0 25 45" id="arrow2-top">
    <path d="M12.5 0.857101L0.952995 20.8571H24.047L12.5 0.857101ZM14.5 44.1428L14.5 18.8571H10.5L10.5 44.1428H14.5Z" fill=""></path>
  </symbol>
  <symbol xmlns="http://www.w3.org/2000/svg" viewBox="0 0 32 27" id="arrow3">
    <path d="M16 27L31.5884 0H0.411499L16 27Z"></path>
  </symbol>
  <symbol xmlns="http://www.w3.org/2000/svg" viewBox="0 0 103 40" id="bed">
    <path d="M14.9375 0.25C8.92297 0.25 3.96875 2.79063 3.96875 5.875V18.5875C1.73844 19.6225 0.3125 21.1038 0.3125 22.75V39.625H18.5938V35.875H84.4062V39.625H102.688V22.75C102.688 21.1038 101.262 19.6225 99.0312 18.5875V5.875C99.0312 2.79063 94.077 0.25 88.0625 0.25H14.9375ZM14.9375 4H88.0625C90.0917 4 91.7188 4.83437 91.7188 5.875V17.125H84.4062V15.25C84.4062 12.1656 79.452 9.625 73.4375 9.625H58.8125C56.0082 9.625 53.4488 10.1875 51.5 11.0875C49.5005 10.1518 46.8943 9.6306 44.1875 9.625H29.5625C23.548 9.625 18.5938 12.1656 18.5938 15.25V17.125H11.2812V5.875C11.2812 4.83437 12.9083 4 14.9375 4ZM29.5625 13.375H44.1875C46.2167 13.375 47.8438 14.2094 47.8438 15.25V17.125H25.9062V15.25C25.9062 14.2094 27.5333 13.375 29.5625 13.375ZM58.8125 13.375H73.4375C75.4667 13.375 77.0938 14.2094 77.0938 15.25V17.125H55.1562V15.25C55.1562 14.2094 56.7833 13.375 58.8125 13.375ZM11.2812 20.875H91.7188C93.748 20.875 95.375 21.7094 95.375 22.75V35.875H91.7188V32.125H11.2812V35.875H7.625V22.75C7.625 21.7094 9.25203 20.875 11.2812 20.875Z"></path>
  </symbol>
  <symbol xmlns="http://www.w3.org/2000/svg" viewBox="0 0 35 38" id="calendar">
    <path d="M0.479126 33.625V11.125H34.5208V33.625C34.5208 35.6875 32.9083 37.375 30.9375 37.375H4.06246C2.09163 37.375 0.479126 35.6875 0.479126 33.625Z" fill="#CFD8DC"></path>
    <path d="M34.5208 7.375V13H0.479126V7.375C0.479126 5.3125 2.09163 3.625 4.06246 3.625H30.9375C32.9083 3.625 34.5208 5.3125 34.5208 7.375Z" fill="#F44336"></path>
    <path d="M25.5625 10.1875C27.0468 10.1875 28.25 8.9283 28.25 7.375C28.25 5.8217 27.0468 4.5625 25.5625 4.5625C24.0782 4.5625 22.875 5.8217 22.875 7.375C22.875 8.9283 24.0782 10.1875 25.5625 10.1875Z" fill="#B71C1C"></path>
    <path d="M9.4375 10.1875C10.9218 10.1875 12.125 8.9283 12.125 7.375C12.125 5.8217 10.9218 4.5625 9.4375 4.5625C7.95323 4.5625 6.75 5.8217 6.75 7.375C6.75 8.9283 7.95323 10.1875 9.4375 10.1875Z" fill="#B71C1C"></path>
    <path d="M25.5625 0.8125C24.5771 0.8125 23.7709 1.65625 23.7709 2.6875V7.375C23.7709 8.40625 24.5771 9.25 25.5625 9.25C26.548 9.25 27.3542 8.40625 27.3542 7.375V2.6875C27.3542 1.65625 26.548 0.8125 25.5625 0.8125Z" fill="#B0BEC5"></path>
    <path d="M9.43754 0.8125C8.45212 0.8125 7.64587 1.65625 7.64587 2.6875V7.375C7.64587 8.40625 8.45212 9.25 9.43754 9.25C10.423 9.25 11.2292 8.40625 11.2292 7.375V2.6875C11.2292 1.65625 10.423 0.8125 9.43754 0.8125Z" fill="#B0BEC5"></path>
    <path d="M7.64587 16.75H11.2292V20.5H7.64587V16.75Z" fill="#90A4AE"></path>
    <path d="M13.0209 16.75H16.6042V20.5H13.0209V16.75Z" fill="#90A4AE"></path>
    <path d="M18.3959 16.75H21.9792V20.5H18.3959V16.75Z" fill="#90A4AE"></path>
    <path d="M23.7709 16.75H27.3542V20.5H23.7709V16.75Z" fill="#90A4AE"></path>
    <path d="M7.64587 22.375H11.2292V26.125H7.64587V22.375Z" fill="#90A4AE"></path>
    <path d="M13.0209 22.375H16.6042V26.125H13.0209V22.375Z" fill="#90A4AE"></path>
    <path d="M18.3959 22.375H21.9792V26.125H18.3959V22.375Z" fill="#90A4AE"></path>
    <path d="M23.7709 22.375H27.3542V26.125H23.7709V22.375Z" fill="#90A4AE"></path>
    <path d="M7.64587 28H11.2292V31.75H7.64587V28Z" fill="#90A4AE"></path>
    <path d="M13.0209 28H16.6042V31.75H13.0209V28Z" fill="#90A4AE"></path>
    <path d="M18.3959 28H21.9792V31.75H18.3959V28Z" fill="#90A4AE"></path>
    <path d="M23.7709 28H27.3542V31.75H23.7709V28Z" fill="#90A4AE"></path>
  </symbol>
  <symbol  xmlns="http://www.w3.org/2000/svg" viewBox="0 0 42 44" id="humen">
    <path d="M20.625 20C22.956 20 25.2346 19.4135 27.1728 18.3147C29.1109 17.2159 30.6215 15.6541 31.5136 13.8268C32.4056 11.9996 32.639 9.98891 32.1843 8.0491C31.7295 6.10929 30.607 4.32746 28.9588 2.92894C27.3105 1.53041 25.2105 0.578004 22.9243 0.192152C20.6381 -0.193701 18.2684 0.00433281 16.1148 0.761209C13.9612 1.51809 12.1206 2.79981 10.8255 4.4443C9.53051 6.08879 8.83929 8.02219 8.83929 10C8.83929 12.6522 10.081 15.1957 12.2912 17.0711C14.5015 18.9464 17.4992 20 20.625 20ZM38.3036 45C39.085 45 39.8344 44.7366 40.387 44.2678C40.9396 43.7989 41.25 43.163 41.25 42.5C41.25 37.8587 39.077 33.4075 35.2091 30.1256C31.3411 26.8438 26.0951 25 20.625 25C15.1549 25 9.90886 26.8438 6.04092 30.1256C2.17298 33.4075 8.15107e-08 37.8587 0 42.5C0 43.163 0.310427 43.7989 0.862989 44.2678C1.41555 44.7366 2.16499 45 2.94643 45H38.3036Z" fill="black"></path>
  </symbol>
  <symbol xmlns="http://www.w3.org/2000/svg" viewBox="0 0 108 128" id="humen2">
    <path d="M47.4043 0.666709C32.471 3.86671 25.271 22.8 33.1377 38.5334C41.9377 56.2667 64.2043 57.0667 74.071 39.8667C78.7377 31.7334 78.471 17.6 73.5377 10.1334C68.2043 2.00004 58.2043 -1.59996 47.4043 0.666709ZM63.5377 8.66671C74.2043 14.2667 73.1377 37.8667 61.8043 43.7334C56.7377 46.4 49.271 46.2667 45.0043 43.4667C36.7377 38.1334 33.8043 22.1334 39.5377 13.6C44.3377 6.40004 55.271 4.13338 63.5377 8.66671Z"></path>
    <path d="M27.5377 59.7334C14.071 63.3334 6.33766 68.9334 3.13766 77.0667C0.870991 82.6667 -1.12901 123.2 0.737658 125.333C2.73766 127.867 104.871 127.867 106.871 125.333C109.004 122.8 106.738 82.4001 104.204 76.4001C103.004 73.7334 100.338 70.0001 98.071 68.1334C93.271 64.1334 81.9377 59.4667 75.1377 58.8001C70.6043 58.4001 70.2043 58.8001 62.471 70.6667C58.071 77.4667 54.2043 82.9334 53.8043 82.9334C53.4043 82.9334 49.5377 77.4667 45.1377 70.8001C40.7377 64.0001 36.6043 58.4001 35.8043 58.2667C35.1377 58.0001 31.271 58.8001 27.5377 59.7334ZM42.6043 78.4001C47.671 86.0001 52.7377 92.4001 53.8043 92.4001C54.871 92.4001 59.9377 86.1334 64.871 78.5334L74.071 64.6667L80.871 66.6667C89.9377 69.3334 91.5377 70.2667 95.5377 75.0667C99.4043 79.4667 99.9377 82.9334 101.138 105.467L101.804 120.4L54.2043 120.133L6.47099 119.733L6.87099 103.067C7.13766 93.8667 7.93766 84.2667 8.60432 81.7334C10.2043 75.0667 16.071 70.0001 25.271 67.0667C29.671 65.7334 33.271 64.5334 33.271 64.5334C33.4043 64.4001 37.5377 70.6667 42.6043 78.4001Z"></path>
  </symbol>
  <symbol version="1.0" xmlns="http://www.w3.org/2000/svg" preserveAspectRatio="xMidYMid meet" viewBox="0 0 179.000000 70.000000" id="logo">
    <g transform="translate(0.000000,70.000000) scale(0.100000,-0.100000)">
      <path d="M845 514 c-56 -75 -119 -144 -131 -144 -6 0 -17 7 -24 15 -11 13 -18
7 -49 -38 -24 -34 -45 -53 -61 -55 -14 -2 -31 -9 -39 -15 -21 -18 -93 -118
-88 -123 2 -2 202 -3 444 -2 l440 3 -73 104 c-40 57 -75 106 -78 108 -3 3 -17
-4 -32 -16 -15 -11 -35 -21 -45 -21 -27 0 -65 39 -102 105 -27 50 -38 61 -62
63 -17 2 -39 15 -50 29 l-21 25 -29 -38z m49 -19 c3 -8 14 -15 25 -15 48 0 51
-6 51 -114 0 -70 -4 -108 -13 -121 -16 -20 -18 -18 -37 45 -8 25 -15 47 -17
49 -2 3 -22 -13 -44 -35 l-40 -39 -20 24 c-33 41 -25 94 24 162 43 60 60 71
71 44z m162 -203 c17 -56 15 -68 -11 -58 -20 7 -31 38 -37 105 -5 54 -5 54 13
30 10 -13 25 -48 35 -77z m-349 20 c16 -27 33 -47 39 -45 7 2 22 -13 35 -33
22 -36 22 -37 3 -51 -10 -8 -32 -13 -49 -11 -23 2 -34 11 -47 40 -10 20 -27
39 -38 43 -11 3 -20 11 -20 16 0 9 42 89 47 89 2 0 15 -22 30 -48z m504 -29
c8 -31 25 -59 48 -80 l36 -33 -43 0 c-23 0 -57 6 -75 14 -65 27 -86 80 -35 88
14 2 24 11 26 23 10 60 24 56 43 -12z m-640 -58 c21 7 25 -5 7 -23 -11 -11
-58 -17 -58 -7 0 2 6 16 12 31 10 22 14 24 16 10 3 -12 9 -15 23 -11z"></path>
    </g>
  </symbol>
  <symbol  xmlns="http://www.w3.org/2000/svg" viewBox="0 0 48 46" id="star">
    <path d="M47.4375 17.6875H29.5469L24 0.34375L18.4531 17.6875H0.5625L15.0156 28.3906L9.54688 45.6562L24 34.9531L38.4531 45.6562L32.9062 28.3125L47.4375 17.6875Z"></path>
  </symbol>
  <symbol  xmlns="http://www.w3.org/2000/svg" viewBox="0 0 61 61" id="world">
    <path d="M30.5 60.5C38.4565 60.5 46.0871 57.3393 51.7132 51.7132C57.3393 46.0871 60.5 38.4565 60.5 30.5C60.5 22.5435 57.3393 14.9129 51.7132 9.2868C46.0871 3.66071 38.4565 0.5 30.5 0.5C22.5435 0.5 14.9129 3.66071 9.2868 9.2868C3.66071 14.9129 0.5 22.5435 0.5 30.5C0.5 38.4565 3.66071 46.0871 9.2868 51.7132C14.9129 57.3393 22.5435 60.5 30.5 60.5ZM30.5 4.25C32.9637 4.25 35.7763 6.4625 38.0825 11.405C38.8963 13.1525 39.605 15.1625 40.1788 17.375H20.8213C21.395 15.1625 22.1038 13.1525 22.9212 11.405C25.22 6.4625 28.0325 4.25 30.5 4.25ZM19.52 9.81875C18.4127 12.2443 17.5545 14.776 16.9587 17.375H7.76C10.9259 11.9033 15.9546 7.75306 21.9275 5.6825C21.0238 6.92 20.2175 8.3225 19.52 9.81875ZM16.22 21.125C15.7347 24.2263 15.4939 27.361 15.5 30.5C15.5 33.7625 15.7512 36.92 16.2237 39.875H5.975C4.83135 36.8818 4.24667 33.7042 4.25 30.5C4.25 27.2 4.86125 24.035 5.975 21.125H16.2237H16.22ZM16.9587 43.625C17.6187 46.4113 18.485 48.9575 19.52 51.1813C20.2175 52.6775 21.0238 54.08 21.9275 55.3175C15.9546 53.2469 10.9259 49.0967 7.76 43.625H16.9625H16.9587ZM20.8213 43.625H40.1788C39.6622 45.6748 38.9592 47.6732 38.0788 49.595C35.78 54.5375 32.9675 56.75 30.5 56.75C28.0362 56.75 25.2238 54.5375 22.9175 49.595C22.0397 47.6729 21.3393 45.6746 20.825 43.625H20.8213ZM40.9775 39.875H20.0225C19.5014 36.7773 19.243 33.6412 19.25 30.5C19.25 27.1887 19.5238 24.0312 20.0225 21.125H40.9775C41.4762 24.0312 41.75 27.1887 41.75 30.5C41.75 33.8112 41.4762 36.9688 40.9775 39.875ZM44.0413 43.625H53.24C50.0741 49.0967 45.0454 53.2469 39.0725 55.3175C39.9762 54.08 40.7825 52.6775 41.48 51.1813C42.515 48.9575 43.3812 46.4113 44.0413 43.625ZM55.0288 39.875H44.7762C45.2487 36.92 45.5 33.7625 45.5 30.5C45.5 27.2375 45.2487 24.08 44.7762 21.125H55.025C56.1388 24.035 56.75 27.2 56.75 30.5C56.75 33.8 56.1388 36.965 55.025 39.875H55.0288ZM39.0725 5.6825C45.0456 7.75276 50.0744 11.903 53.24 17.375H44.0375C43.4417 14.7761 42.5835 12.2443 41.4762 9.81875C40.8085 8.36584 40.0023 6.98069 39.0687 5.6825H39.0725Z"></path>
  </symbol>
  <symbol xmlns="http://www.w3.org/2000/svg" viewBox="0 0 12 14" id="arrow-counting">
    <path d="M6.00001 0L0.803864 13.5L11.1962 13.5L6.00001 0Z"></path>
  </symbol>
  <symbol fill="none" xmlns="http://www.w3.org/2000/svg" viewBox="0 0 667 534" id="bed-2">
    <path d="M600 0H66.6667V266.667H0V433.333V466.667V533.333H66.6667V466.667H600V533.333H666.667V466.667V433.333V266.667H600V0ZM200 233.333C200 214.95 214.95 200 233.333 200H433.333C451.717 200 466.667 214.95 466.667 233.333C466.667 251.717 451.717 266.667 433.333 266.667H233.333C214.95 266.667 200 251.717 200 233.333ZM133.333 66.6667H533.333V233.333C533.333 178.183 488.483 133.333 433.333 133.333H233.333C178.183 133.333 133.333 178.183 133.333 233.333V66.6667ZM600 400H66.6667V333.333H233.333H433.333H600V400Z" fill="black"></path>
  </symbol>
</svg>