<?xml version="1.0" encoding="utf-8"?><svg xmlns="http://www.w3.org/2000/svg" xmlns:xlink="http://www.w3.org/1999/xlink"><symbol viewBox="0 0 26 50" id="arrow-down" xmlns="http://www.w3.org/2000/svg"><path d="M13.801 49.67l11.364-11.364a1.136 1.136 0 10-1.603-1.602l-9.431 9.42V1.136a1.136 1.136 0 00-2.273 0v44.988l-9.42-9.42a1.136 1.136 0 10-1.602 1.602L12.199 49.67c.443.44 1.159.44 1.602 0z"/></symbol><symbol viewBox="0 0 61 16" id="arrow-l" xmlns="http://www.w3.org/2000/svg"><path d="M8.071 15.072a1 1 0 01-1.414 0L.293 8.707a1 1 0 010-1.414L6.657.93a1 1 0 011.414 1.414L3.414 7H61v2H3.414l4.657 4.658a1 1 0 010 1.414z"/></symbol><symbol viewBox="0 0 61 16" id="arrow-r" xmlns="http://www.w3.org/2000/svg"><path d="M52.929.928a1 1 0 011.414 0l6.364 6.365a1 1 0 010 1.414l-6.364 6.364a1 1 0 01-1.414-1.414L57.586 9H0V7h57.586l-4.657-4.657a1 1 0 010-1.415z"/></symbol><symbol viewBox="0 0 576 512" id="behance" xmlns="http://www.w3.org/2000/svg"><path d="M232 237.2c31.8-15.2 48.4-38.2 48.4-74 0-70.6-52.6-87.8-113.3-87.8H0v354.4h171.8c64.4 0 124.9-30.9 124.9-102.9 0-44.5-21.1-77.4-64.7-89.7zM77.9 135.9H151c28.1 0 53.4 7.9 53.4 40.5 0 30.1-19.7 42.2-47.5 42.2h-79v-82.7zm83.3 233.7H77.9V272h84.9c34.3 0 56 14.3 56 50.6 0 35.8-25.9 47-57.6 47zm358.5-240.7H376V94h143.7v34.9zM576 305.2c0-75.9-44.4-139.2-124.9-139.2-78.2 0-131.3 58.8-131.3 135.8 0 79.9 50.3 134.7 131.3 134.7 61.3 0 101-27.6 120.1-86.3H509c-6.7 21.9-34.3 33.5-55.7 33.5-41.3 0-63-24.2-63-65.3h185.1c.3-4.2.6-8.7.6-13.2zM390.4 274c2.3-33.7 24.7-54.8 58.5-54.8 35.4 0 53.2 20.8 56.2 54.8H390.4z"/></symbol><symbol viewBox="0 0 54 38" id="burger" xmlns="http://www.w3.org/2000/svg"><path d="M.75 2.125A1.875 1.875 0 002.625 4h48.75a1.875 1.875 0 100-3.75H2.625A1.875 1.875 0 00.75 2.125zm9.375 15h41.25a1.875 1.875 0 110 3.75h-41.25a1.875 1.875 0 110-3.75zM27 34h24.375a1.875 1.875 0 110 3.75H27A1.875 1.875 0 1127 34z"/></symbol><symbol viewBox="0 0 60 60" id="dribbble" xmlns="http://www.w3.org/2000/svg"><g clip-path="url(#fclip0_21_7627)"><path d="M30 0C13.459 0 0 13.459 0 30s13.459 30 30 30 30-13.459 30-30S46.541 0 30 0zm0 56.25C15.525 56.25 3.75 44.471 3.75 30 3.75 15.525 15.525 3.75 30 3.75c14.471 0 26.25 11.775 26.25 26.25 0 14.471-11.779 26.25-26.25 26.25z"/><path d="M30 7.5c-1.575 0-3.113.165-4.598.473a106.88 106.88 0 017.392 12.07 52.942 52.942 0 0011.561-7.368A22.404 22.404 0 0030 7.5zm17.029 7.822a57.089 57.089 0 01-12.612 8.056 102.831 102.831 0 012.75 6.25c4.98-1.023 10.162-1.117 15.3-.265a22.37 22.37 0 00-5.438-14.04zM21.637 9.124A22.512 22.512 0 008.098 24.93a53.083 53.083 0 0021.198-3.465 102.543 102.543 0 00-7.658-12.341zm9.338 15.735C24.48 27.39 17.542 28.77 10.489 28.77c-.972 0-1.947-.06-2.922-.113-.026.447-.067.89-.067 1.343a22.399 22.399 0 005.303 14.494A42.186 42.186 0 0133.51 30.563a100.321 100.321 0 00-2.535-5.704zm7.567 8.321a105.935 105.935 0 014.22 15.341 22.472 22.472 0 009.498-15.405 38.226 38.226 0 00-13.718.064zm-3.682.87a38.404 38.404 0 00-19.395 13.11 22.39 22.39 0 0023.861 3.296A102.057 102.057 0 0034.86 34.05z"/></g><defs><clipPath id="fclip0_21_7627"><path d="M0 0h60v60H0z"/></clipPath></defs></symbol><symbol viewBox="0 0 52 52" id="f" xmlns="http://www.w3.org/2000/svg"><path d="M45.219.219H6.78A6.563 6.563 0 00.22 6.78v38.44a6.562 6.562 0 006.56 6.56h18.83V30.327h-4.291v-8.582h4.255v-3.878c0-3.51 1.672-8.993 9.03-8.993l6.63.026v7.353h-4.815c-.782 0-1.896.39-1.896 2.061v3.432h6.82l-.783 8.582h-6.369V51.78H45.22a6.562 6.562 0 006.562-6.562V6.78A6.562 6.562 0 0045.22.22z"/></symbol><symbol viewBox="0 0 60 60" id="in" xmlns="http://www.w3.org/2000/svg"><path d="M54 0H6C2.7 0 0 2.7 0 6v48c0 3.3 2.7 6 6 6h48c3.3 0 6-2.7 6-6V6c0-3.3-2.7-6-6-6zM18 51H9V24h9v27zm-4.5-32.1c-3 0-5.4-2.4-5.4-5.4 0-3 2.4-5.4 5.4-5.4 3 0 5.4 2.4 5.4 5.4 0 3-2.4 5.4-5.4 5.4zM51 51h-9V35.1c0-2.4-2.1-4.5-4.5-4.5S33 32.7 33 35.1V51h-9V24h9v3.6c1.5-2.4 4.8-4.2 7.5-4.2 5.7 0 10.5 4.8 10.5 10.5V51z"/></symbol><symbol viewBox="0 0 96 39" id="logo" xmlns="http://www.w3.org/2000/svg"><path d="M28.976 29.793a.74.74 0 01-.546-.212.765.765 0 01-.182-.516v-1.73c0-.182.04-.354.121-.516a3.01 3.01 0 01.304-.455l7.768-9.194H29.22a.765.765 0 01-.516-.183.74.74 0 01-.212-.546v-1.699c0-.202.07-.374.212-.516a.702.702 0 01.516-.212h11.5c.223 0 .395.07.517.212a.702.702 0 01.212.516v1.851c0 .182-.04.344-.121.486a4.442 4.442 0 01-.304.455l-7.586 9.103h7.92c.202 0 .374.071.516.213.141.121.212.293.212.515v1.7c0 .202-.07.374-.212.516a.702.702 0 01-.516.212h-12.38zm20.764.303c-1.052 0-2.003-.202-2.853-.606-.85-.425-1.527-.981-2.033-1.67a4.091 4.091 0 01-.728-2.366c0-1.416.566-2.54 1.7-3.369 1.152-.85 2.67-1.416 4.551-1.699l4.157-.607v-.637c0-.85-.212-1.507-.637-1.972-.425-.466-1.153-.698-2.185-.698-.728 0-1.325.151-1.79.455a2.642 2.642 0 00-1.002 1.153.773.773 0 01-.698.394h-2.397c-.222 0-.394-.06-.516-.182-.1-.121-.151-.283-.151-.485.02-.324.151-.718.394-1.184.243-.465.627-.91 1.153-1.335.526-.445 1.204-.82 2.033-1.123.83-.303 1.831-.455 3.005-.455 1.274 0 2.346.162 3.216.486.89.303 1.598.718 2.124 1.244s.91 1.143 1.153 1.851.365 1.456.365 2.245v9.529a.704.704 0 01-.213.516.703.703 0 01-.516.212h-2.458a.74.74 0 01-.546-.212.765.765 0 01-.182-.516V27.88a4.893 4.893 0 01-1.062 1.093c-.445.323-.991.596-1.639.819-.627.202-1.375.303-2.245.303zm1.032-2.882c.708 0 1.345-.152 1.911-.455.587-.304 1.042-.77 1.366-1.396.344-.648.516-1.457.516-2.428v-.637l-3.035.485c-1.194.182-2.084.476-2.67.88-.587.405-.88.9-.88 1.487 0 .445.131.83.394 1.153a2.78 2.78 0 001.062.698c.425.142.87.213 1.336.213zm12.45 2.579a.702.702 0 01-.516-.212.702.702 0 01-.213-.516V14.772a.74.74 0 01.213-.546.701.701 0 01.516-.212h2.458c.202 0 .374.07.516.212a.693.693 0 01.242.546v1.245a4.571 4.571 0 011.79-1.487c.749-.344 1.609-.516 2.58-.516h1.244c.222 0 .395.07.516.212a.703.703 0 01.212.516v2.185a.703.703 0 01-.212.516c-.121.141-.293.212-.516.212h-2.367c-.97 0-1.73.273-2.276.82-.526.546-.789 1.294-.789 2.245v8.345a.703.703 0 01-.212.516.74.74 0 01-.546.212h-2.64zm19.056 0c-1.214 0-2.235-.212-3.065-.637a4.071 4.071 0 01-1.851-1.882c-.404-.85-.607-1.901-.607-3.155V17.23h-2.397a.703.703 0 01-.516-.212.704.704 0 01-.213-.516v-1.76c0-.202.072-.374.213-.516a.703.703 0 01.516-.212h2.397V8.977a.76.76 0 01.182-.516.74.74 0 01.546-.213h2.458a.7.7 0 01.516.213.702.702 0 01.213.516v5.037h3.793c.202 0 .374.07.516.212a.701.701 0 01.212.516v1.76c0 .202-.07.374-.213.516a.702.702 0 01-.515.212H80.67v6.585c0 .83.141 1.477.424 1.942.304.465.82.698 1.548.698h2.094c.202 0 .374.07.516.213a.702.702 0 01.212.515v1.882c0 .202-.07.374-.212.516a.702.702 0 01-.516.212h-2.458zm9.183.205a2.091 2.091 0 01-1.519-.625 2.085 2.085 0 01-.636-1.53c0-.59.212-1.092.636-1.509.424-.424.93-.636 1.52-.636.588 0 1.095.212 1.519.636.424.417.636.92.636 1.509 0 .395-.101.758-.302 1.088a2.235 2.235 0 01-.776.776 2.055 2.055 0 01-1.078.29zm-77.668.898c-2.296 0-4.368-.528-6.214-1.586a11.618 11.618 0 01-4.346-4.448c-1.052-1.908-1.578-4.034-1.578-6.38 0-2.344.526-4.459 1.578-6.344 1.052-1.908 2.5-3.39 4.346-4.448 1.846-1.08 3.918-1.621 6.214-1.621 2.297 0 4.368.54 6.214 1.62 1.846 1.058 3.295 2.53 4.347 4.414 1.051 1.886 1.577 4.012 1.577 6.38 0 2.368-.526 4.494-1.577 6.379a11.618 11.618 0 01-4.347 4.448c-1.846 1.058-3.917 1.587-6.214 1.587zm0-3.93c1.503 0 2.855-.357 4.057-1.07 1.202-.735 2.146-1.747 2.833-3.034.687-1.31 1.03-2.77 1.03-4.38 0-1.608-.343-3.057-1.03-4.344-.687-1.31-1.631-2.322-2.833-3.035C16.648 10.368 15.296 10 13.793 10c-1.502 0-2.854.368-4.056 1.103-1.202.713-2.147 1.725-2.834 3.035-.687 1.287-1.03 2.736-1.03 4.345 0 1.609.343 3.069 1.03 4.379.687 1.287 1.632 2.299 2.833 3.035 1.202.712 2.555 1.069 4.057 1.069z"/><path d="M12 2h4v33h-4z"/></symbol><symbol viewBox="0 0 384 512" id="play" xmlns="http://www.w3.org/2000/svg"><path d="M73 39c-14.8-9.1-33.4-9.4-48.5-.9S0 62.6 0 80v352c0 17.4 9.4 33.4 24.5 41.9S58.2 482 73 473l288-176c14.3-8.7 23-24.2 23-41s-8.7-32.2-23-41L73 39z"/></symbol><symbol viewBox="0 0 60 60" id="quotation" xmlns="http://www.w3.org/2000/svg"><path d="M20.845 30H11.69v-7.324a7.33 7.33 0 017.324-7.324h.915a2.74 2.74 0 002.747-2.747V7.112a2.74 2.74 0 00-2.747-2.747h-.915C8.897 4.365.704 12.56.704 22.675v27.467a5.495 5.495 0 005.492 5.493h14.649a5.495 5.495 0 005.493-5.493V35.493A5.495 5.495 0 0020.845 30zm32.959 0h-9.156v-7.324a7.331 7.331 0 017.325-7.324h.915a2.74 2.74 0 002.747-2.747V7.112a2.74 2.74 0 00-2.747-2.747h-.915c-10.117 0-18.31 8.194-18.31 18.31v27.467a5.495 5.495 0 005.492 5.493h14.649a5.495 5.495 0 005.493-5.493V35.493A5.495 5.495 0 0053.804 30z"/></symbol><symbol viewBox="0 0 26 27" id="search" xmlns="http://www.w3.org/2000/svg"><path d="M21.333 12.167a9.667 9.667 0 10-9.666 9.666 9.666 9.666 0 009.666-9.666zm2 0c0 6.443-5.223 11.666-11.666 11.666C5.224 23.833 0 18.61 0 12.167 0 5.724 5.224.5 11.667.5s11.666 5.224 11.666 11.667z"/><path d="M18.493 18.993a1 1 0 011.414 0l5.8 5.8a1 1 0 11-1.414 1.414l-5.8-5.8a1 1 0 010-1.414z"/></symbol><symbol viewBox="0 0 49 40" id="twitter" xmlns="http://www.w3.org/2000/svg"><path d="M48.94 5.12c-1.8.78-3.66 1.32-5.64 1.56 2.04-1.2 3.6-3.12 4.32-5.46-1.92 1.14-4.02 1.92-6.24 2.4A9.874 9.874 0 0034.18.5c-5.46 0-9.84 4.44-9.84 9.84 0 .78.06 1.5.24 2.22C16.42 12.2 9.22 8.24 4.36 2.3c-3.48 6.24.42 11.4 3 13.14-1.56 0-3.12-.48-4.44-1.2 0 4.86 3.42 8.88 7.86 9.78-.96.3-3.12.48-4.44.18 1.26 3.9 4.92 6.78 9.18 6.84-3.36 2.64-8.28 4.74-14.58 4.08 4.38 2.82 9.54 4.44 15.12 4.44 18.12 0 27.96-15 27.96-27.96 0-.42 0-.84-.06-1.26 2.04-1.5 3.72-3.24 4.98-5.22z"/></symbol></svg>