<svg xmlns="http://www.w3.org/2000/svg" xmlns:xlink="http://www.w3.org/1999/xlink" width="0" height="0" class="hidden">
  <symbol fill="none" xmlns="http://www.w3.org/2000/svg" viewBox="0 0 265 93" id="logo">
    <path d="M98.46 72.6V74.954H95.226V88H92.674V74.954H89.44V72.6H98.46ZM110.104 88L109.422 86.218H104.01L103.35 88H100.578L106.716 72.16L112.876 88H110.104ZM106.716 78.65L104.846 83.996H108.586L106.716 78.65ZM124.241 79.244H130.907V88.022H128.663L128.531 86.614C127.277 87.78 125.979 88.22 124.153 88.22C120.017 88.22 116.783 85.338 116.783 80.3C116.783 75.724 120.237 72.38 124.483 72.38C126.617 72.38 128.531 73.238 129.917 74.646L128.113 76.45C127.189 75.526 125.891 74.954 124.483 74.954C121.645 74.954 119.357 76.934 119.357 80.3C119.357 84.062 121.645 85.646 124.483 85.646C126.023 85.646 127.387 84.986 128.333 83.908V81.51H124.241V79.244ZM139.474 85.426H145.172V88H136.9V72.6H139.474V85.426ZM150.628 88V72.6H153.202V88H150.628ZM172.194 72.6V88H169.598L161.942 77.044V88H159.368V72.6H161.964L169.642 83.556V72.6H172.194ZM188.61 75.174H180.91V79.024H187.312V81.576H180.91V85.426H188.61V88H178.336V72.6H188.61V75.174ZM213.153 72.6H215.727V88H213.153V81.576H206.751V88H204.177V72.6H206.751V78.98H213.153V72.6ZM232.129 75.174H224.429V79.024H230.831V81.576H224.429V85.426H232.129V88H221.855V72.6H232.129V75.174ZM245.019 88L242.071 81.576H239.981V88H237.407V72.6H242.533C242.533 72.6 247.681 72.6 247.681 77.088C247.681 79.574 246.097 80.674 244.711 81.18L247.857 88H245.019ZM239.981 75.174V79.024H242.533C242.533 79.024 245.107 79.024 245.107 77.088C245.107 75.174 242.533 75.174 242.533 75.174H239.981ZM263.513 75.174H255.813V79.024H262.215V81.576H255.813V85.426H263.513V88H253.239V72.6H263.513V75.174Z" fill="white"></path>
    <path d="M93.9 64.6C90.94 64.6 88.54 63.68 86.7 61.84C84.86 60 83.94 57.6 83.94 54.64V31.36C83.94 28.4 84.86 26 86.7 24.16C88.54 22.32 90.94 21.4 93.9 21.4C96.86 21.4 99.26 22.32 101.1 24.16C102.94 26 103.86 28.4 103.86 31.36V36.28H97.62V31.36C97.62 30.16 97.28 29.2 96.6 28.48C95.92 27.76 95.04 27.4 93.96 27.4C92.88 27.4 92 27.76 91.32 28.48C90.64 29.2 90.3 30.16 90.3 31.36V54.64C90.3 55.84 90.64 56.8 91.32 57.52C92 58.24 92.88 58.6 93.96 58.6C95.04 58.6 95.92 58.24 96.6 57.52C97.28 56.8 97.62 55.84 97.62 54.64V48.64H103.86V54.64C103.86 57.6 102.94 60 101.1 61.84C99.26 63.68 96.86 64.6 93.9 64.6ZM123.955 64L119.335 46.66H116.035V64H109.675V22H119.635C122.675 22 125.095 22.92 126.895 24.76C128.695 26.56 129.595 28.98 129.595 32.02V36.64C129.595 38.56 129.215 40.26 128.455 41.74C127.695 43.22 126.615 44.38 125.215 45.22L130.555 64H123.955ZM116.035 40.66H119.335C120.575 40.66 121.535 40.32 122.215 39.64C122.895 38.96 123.235 38 123.235 36.76V31.9C123.235 30.66 122.895 29.7 122.215 29.02C121.535 28.34 120.575 28 119.335 28H116.035V40.66ZM135.75 22H153.81V28H142.11V39.7H151.41V45.7H142.11V58H153.81V64H135.75V22ZM172.254 54.7H165.414L164.034 64H157.674L164.634 22H173.154L180.114 64H173.634L172.254 54.7ZM171.414 48.58L168.834 31L166.254 48.58H171.414ZM180.467 22H200.747V28H193.787V64H187.427V28H180.467V22ZM205.652 22H212.012V64H205.652V22ZM239.353 22L232.393 64H223.873L216.913 22H223.393L228.193 55L232.993 22H239.353ZM244.265 22H262.325V28H250.625V39.7H259.925V45.7H250.625V58H262.325V64H244.265V22Z" fill="white"></path>
    <rect x="23.8599" width="34.2337" height="81.6079" rx="16" transform="rotate(17 23.8599 0)" fill="white"></rect>
    <rect x="48.1492" y="25.4326" width="20" height="53.017" rx="10" transform="rotate(17 48.1492 25.4326)" fill="#434343"></rect>
  </symbol>
</svg>