<?xml version="1.0" encoding="utf-8"?><svg xmlns="http://www.w3.org/2000/svg" xmlns:xlink="http://www.w3.org/1999/xlink"><symbol viewBox="0 0 320 512" id="arrow" xmlns="http://www.w3.org/2000/svg"><path d="M41.4 233.4c-12.5 12.5-12.5 32.8 0 45.3l160 160c12.5 12.5 32.8 12.5 45.3 0s12.5-32.8 0-45.3L109.3 256l137.3-137.4c12.5-12.5 12.5-32.8 0-45.3s-32.8-12.5-45.3 0l-160 160z"/></symbol><symbol viewBox="0 0 24 24" id="bag" xmlns="http://www.w3.org/2000/svg"><path fill-rule="evenodd" clip-rule="evenodd" d="M12 2.75A2.25 2.25 0 009.75 5v.254c.418-.004.868-.004 1.355-.004h1.79c.487 0 .938 0 1.355.004V5A2.25 2.25 0 0012 2.75zm3.75 2.557V5a3.75 3.75 0 00-7.5 0v.307c-.135.01-.265.021-.391.035-.878.095-1.613.293-2.265.74a4.75 4.75 0 00-.63.516c-.566.552-.905 1.234-1.17 2.076-.257.819-.465 1.859-.727 3.166l-.019.095c-.376 1.883-.673 3.367-.758 4.549-.088 1.208.034 2.223.606 3.104.191.294.414.565.664.81.752.734 1.724 1.052 2.925 1.204 1.176.148 2.69.148 4.61.148h1.81c1.921 0 3.434 0 4.61-.148 1.201-.152 2.174-.47 2.925-1.204a4.75 4.75 0 00.664-.81c.572-.88.694-1.896.607-3.104-.086-1.182-.382-2.666-.76-4.549l-.018-.095c-.261-1.307-.47-2.347-.727-3.166-.265-.842-.604-1.524-1.17-2.076a4.747 4.747 0 00-.63-.516c-.652-.447-1.387-.645-2.265-.74a11.401 11.401 0 00-.39-.035zM8.02 6.833c-.747.08-1.208.233-1.578.486a3.25 3.25 0 00-.431.354c-.321.313-.56.735-.786 1.451-.23.733-.424 1.693-.695 3.052-.39 1.948-.667 3.34-.744 4.416-.077 1.062.052 1.693.368 2.179.13.2.283.387.454.554.415.405 1.008.655 2.065.789 1.07.135 2.49.136 4.476.136h1.703c1.986 0 3.404-.001 4.475-.136 1.057-.134 1.65-.384 2.065-.789a3.25 3.25 0 00.454-.554c.316-.486.445-1.117.369-2.18-.078-1.076-.355-2.467-.744-4.415-.272-1.359-.465-2.32-.696-3.052-.225-.716-.465-1.138-.786-1.451a3.246 3.246 0 00-.43-.354c-.37-.253-.832-.405-1.579-.486-.763-.082-1.743-.083-3.129-.083H11.15c-1.386 0-2.366.001-3.13.083zm.901 7.46a.75.75 0 01.957.457 2.251 2.251 0 004.244 0 .75.75 0 111.415.5 3.751 3.751 0 01-7.073 0 .75.75 0 01.457-.957z"/></symbol><symbol viewBox="0 0 31 17" id="burger" xmlns="http://www.w3.org/2000/svg"><path d="M0 2a2 2 0 012-2h27a2 2 0 110 4H2a2 2 0 01-2-2zm8 13a2 2 0 012-2h19a2 2 0 110 4H10a2 2 0 01-2-2z" fill-rule="evenodd" clip-rule="evenodd"/></symbol><symbol viewBox="0 0 27 27" id="glass" xmlns="http://www.w3.org/2000/svg"><path d="M22 10.75c0 5.937-4.925 10.75-11 10.75S0 16.687 0 10.75 4.925 0 11 0s11 4.813 11 10.75zm-20.333 0c0 5.037 4.179 9.12 9.333 9.12s9.333-4.083 9.333-9.12c0-5.037-4.179-9.12-9.333-9.12s-9.333 4.083-9.333 9.12z"/><path d="M18.859 17.795l6.934 6.815a.842.842 0 01-1.18 1.202l-6.935-6.815 1.18-1.202z"/></symbol><symbol viewBox="0 0 97 22" id="logo-text" xmlns="http://www.w3.org/2000/svg"><path d="M.313 21V.636h8.79c1.51 0 2.833.299 3.967.895a6.495 6.495 0 012.644 2.516c.63 1.08.945 2.343.945 3.788 0 1.459-.325 2.721-.974 3.789-.643 1.067-1.548 1.889-2.715 2.465-1.16.577-2.516.865-4.067.865h-5.25V10.66H7.79c.65 0 1.203-.113 1.66-.338a2.47 2.47 0 001.064-.984c.252-.425.378-.925.378-1.502 0-.583-.126-1.08-.378-1.491A2.37 2.37 0 009.45 5.39c-.457-.225-1.01-.338-1.66-.338H5.84V21H.314zM24.256.636V21h-5.489V.636h5.489zm7.052 20.603c-.974 0-1.836-.16-2.585-.478a3.886 3.886 0 01-1.75-1.471c-.425-.656-.637-1.492-.637-2.506 0-.835.143-1.548.428-2.138a3.85 3.85 0 011.193-1.461 5.631 5.631 0 011.78-.865 10.79 10.79 0 012.207-.388 21.626 21.626 0 002.058-.239c.524-.1.902-.235 1.134-.407a.849.849 0 00.348-.707v-.04c0-.397-.152-.702-.457-.914-.305-.212-.696-.318-1.174-.318-.523 0-.95.116-1.282.348-.325.225-.52.573-.587 1.044h-5.051a5.205 5.205 0 01.885-2.565c.53-.79 1.302-1.419 2.317-1.89 1.014-.477 2.28-.716 3.798-.716 1.094 0 2.075.13 2.943.388.868.252 1.608.607 2.217 1.064.61.45 1.074.981 1.392 1.591.325.603.488 1.26.488 1.969V21h-5.131v-2.148h-.12c-.304.57-.675 1.031-1.113 1.382a4.08 4.08 0 01-1.482.766c-.55.16-1.156.239-1.82.239zm1.79-3.46c.417 0 .808-.087 1.173-.26.371-.171.673-.42.905-.745.232-.325.348-.72.348-1.183v-1.273c-.146.06-.302.116-.468.17a9.435 9.435 0 01-1.094.278c-.198.04-.407.076-.626.109-.424.066-.772.176-1.044.328a1.546 1.546 0 00-.596.547c-.126.212-.19.45-.19.716 0 .424.15.749.448.974.298.226.68.338 1.144.338zm15.986-5.37V21h-5.489V5.727h5.21v2.904h.16a4.326 4.326 0 011.75-2.277c.841-.55 1.822-.826 2.943-.826 1.08 0 2.018.249 2.814.746a4.955 4.955 0 011.859 2.029c.444.861.663 1.846.656 2.953V21H53.5v-8.59c.006-.757-.186-1.35-.577-1.78-.385-.432-.921-.647-1.61-.647-.452 0-.846.1-1.184.298-.332.192-.587.47-.766.835-.179.358-.272.79-.278 1.293zm21.72-6.682v3.978H60.743V5.727h10.063zm-8.113-3.659h5.489v14.02c0 .212.036.391.11.537a.71.71 0 00.337.318c.153.066.348.1.587.1.165 0 .358-.02.576-.06.226-.04.392-.073.498-.1l.795 3.858a19.04 19.04 0 01-1.054.269 9.26 9.26 0 01-1.61.209c-1.26.066-2.317-.063-3.173-.388-.855-.331-1.498-.852-1.928-1.561-.431-.71-.64-1.598-.627-2.665V2.068zm17.547 19.21c-1.657 0-3.076-.328-4.255-.984a6.769 6.769 0 01-2.715-2.764c-.63-1.187-.945-2.562-.945-4.127 0-1.564.315-2.936.945-4.116a6.69 6.69 0 012.715-2.764c1.18-.663 2.598-.995 4.255-.995s3.076.332 4.256.995a6.691 6.691 0 012.715 2.764c.63 1.18.944 2.552.944 4.116 0 1.565-.315 2.94-.945 4.127a6.77 6.77 0 01-2.714 2.764c-1.18.656-2.599.984-4.256.984zm.04-4.056c.464 0 .865-.156 1.203-.468.338-.311.6-.755.786-1.332.185-.577.278-1.263.278-2.058 0-.802-.093-1.489-.278-2.059-.186-.576-.448-1.02-.786-1.332a1.716 1.716 0 00-1.203-.467c-.49 0-.911.155-1.263.467-.351.312-.62.756-.805 1.332-.186.57-.278 1.257-.278 2.059 0 .795.092 1.481.278 2.058.186.577.454 1.02.805 1.332.352.312.772.468 1.263.468zm13.085 4.096a2.733 2.733 0 01-1.978-.805 2.66 2.66 0 01-.806-1.979 2.593 2.593 0 01.806-1.939 2.732 2.732 0 011.978-.805c.73 0 1.372.268 1.93.805.563.537.848 1.183.854 1.94a2.678 2.678 0 01-.407 1.411 3 3 0 01-1.014 1.004 2.643 2.643 0 01-1.363.368z"/></symbol><symbol viewBox="0 0 23 26" id="play" xmlns="http://www.w3.org/2000/svg"><path d="M21.5 10.402c2 1.155 2 4.041 0 5.196L5 25.124C3 26.28.5 24.836.5 22.526V3.474C.5 1.164 3-.28 5 .876l16.5 9.526z"/></symbol><symbol viewBox="0 0 15 14" id="star" xmlns="http://www.w3.org/2000/svg"><path d="M7.5 0l1.684 5.182h5.449l-4.408 3.203 1.684 5.183L7.5 10.365l-4.408 3.203 1.684-5.183L.367 5.182h5.45L7.5 0z"/></symbol><symbol viewBox="0 0 12 6" id="triangular-arrow" xmlns="http://www.w3.org/2000/svg"><path d="M6 6L.804.75h10.392L6 6z"/></symbol></svg>